<?xml version="1.0" standalone="no"?>
<!DOCTYPE svg PUBLIC "-//W3C//DTD SVG 20010904//EN"
 "http://www.w3.org/TR/2001/REC-SVG-20010904/DTD/svg10.dtd">
<svg version="1.0" xmlns="http://www.w3.org/2000/svg"
 width="300.000000pt" height="561.000000pt" viewBox="0 0 300.000000 561.000000"
 preserveAspectRatio="xMidYMid meet">
<metadata>
Created by potrace 1.10, written by Peter Selinger 2001-2011
</metadata>
<g transform="translate(0.000000,561.000000) scale(0.100000,-0.100000)"
fill="#000000" stroke="none">
<path d="M1225 5360 c-316 -64 -607 -234 -794 -463 -165 -203 -272 -429 -302
-641 -14 -104 -12 -329 5 -426 44 -249 131 -415 415 -791 193 -256 250 -377
301 -641 14 -72 54 -127 114 -158 l47 -25 18 24 c12 16 21 20 25 12 9 -14 46
-15 46 -1 0 7 6 7 18 1 13 -7 23 -6 31 2 9 9 16 9 31 -1 10 -6 21 -8 24 -4 6
9 492 8 571 -1 149 -17 156 -19 144 -34 -18 -21 89 23 129 53 46 35 60 69 78
186 15 102 55 231 94 308 37 73 132 213 219 325 261 333 343 495 387 765 31
192 6 469 -58 647 -72 201 -154 329 -308 484 -164 164 -316 260 -531 333 -188
64 -513 85 -704 46z m511 -40 c104 -19 286 -71 309 -89 5 -5 55 -32 109 -60
55 -29 105 -58 112 -64 7 -7 27 -23 46 -36 50 -38 219 -210 254 -261 70 -101
113 -182 152 -288 38 -100 49 -139 67 -237 3 -16 9 -102 12 -190 13 -346 -69
-581 -312 -890 -39 -49 -98 -126 -131 -170 -150 -200 -238 -392 -264 -575 -14
-99 -40 -154 -84 -172 -34 -14 -157 -18 -149 -5 3 4 28 19 57 31 72 32 92 56
105 129 22 116 54 242 63 245 4 2 8 10 8 17 0 17 90 195 107 213 7 7 13 17 13
22 0 4 25 40 55 79 30 39 51 71 47 71 -4 0 -2 4 5 8 14 9 208 269 225 302 7
14 29 52 48 85 20 33 46 87 59 120 13 33 29 76 37 95 53 137 70 368 38 538
-18 100 -53 210 -95 300 -16 35 -29 65 -29 68 0 4 -13 26 -30 51 -16 24 -30
47 -30 50 0 5 -23 35 -85 110 -5 7 -26 32 -45 56 -19 24 -51 56 -70 71 -19 15
-66 51 -105 81 -38 30 -74 55 -79 55 -5 0 -24 11 -42 25 -69 52 -245 116 -414
151 -170 34 -451 21 -575 -26 -15 -6 -35 -10 -46 -10 -20 0 -119 -42 -194 -81
-261 -139 -479 -384 -584 -657 -10 -26 -21 -56 -26 -67 -9 -23 -14 -41 -20
-75 -2 -14 -4 -25 -5 -25 -1 0 -3 -7 -5 -15 -48 -196 -23 -502 56 -677 10 -24
19 -46 19 -51 0 -10 48 -99 94 -174 56 -92 220 -308 239 -316 4 -2 7 -7 7 -12
0 -4 29 -51 65 -103 99 -145 184 -339 200 -457 9 -66 36 -129 65 -153 11 -10
41 -28 66 -39 24 -12 44 -25 44 -28 0 -4 -28 -8 -63 -9 -104 -3 -129 27 -168
206 -32 151 -81 273 -155 389 -10 16 -70 98 -134 182 -63 84 -126 170 -139
190 -13 20 -27 39 -31 42 -11 7 -110 173 -110 184 0 5 -6 17 -14 25 -25 30
-94 226 -111 316 -12 61 -17 142 -17 250 0 135 3 176 24 265 61 256 211 501
424 692 96 85 356 238 405 238 8 0 19 4 24 9 18 16 241 63 350 74 69 7 248 -5
351 -23z m-36 -95 c500 -94 877 -451 984 -935 39 -175 27 -392 -30 -568 -48
-149 -120 -277 -273 -484 -290 -395 -345 -503 -391 -763 -7 -38 -16 -77 -21
-86 -13 -26 -88 -51 -171 -56 l-78 -6 0 129 c0 158 28 343 65 439 38 98 95
213 127 259 16 21 28 44 28 51 0 7 9 20 19 29 11 10 27 33 36 53 15 31 15 36
1 58 -22 33 -80 44 -107 19 -25 -23 -148 -240 -183 -324 -93 -223 -116 -336
-116 -571 l0 -149 -109 3 -108 2 -6 185 c-3 104 -12 213 -21 250 -34 154 -111
338 -225 543 -50 91 -60 102 -86 105 -43 4 -95 -31 -95 -63 0 -27 23 -79 45
-105 25 -28 148 -275 172 -345 55 -158 74 -239 79 -350 2 -60 6 -136 8 -169
l4 -58 -66 6 c-43 5 -90 18 -129 37 -69 33 -64 24 -99 179 -46 204 -142 385
-333 630 -145 186 -234 326 -280 442 -144 363 -107 752 101 1068 84 129 164
217 271 301 190 148 399 232 652 262 62 8 253 -3 335 -18z m-652 -1867 c32
-40 176 -326 212 -423 52 -139 80 -324 79 -513 -1 -56 3 -98 10 -105 22 -22
12 -36 -23 -31 -19 2 -37 0 -40 -5 -3 -5 -15 -7 -26 -4 -19 5 -19 6 -3 18 15
11 19 32 21 124 5 164 -28 341 -97 516 -21 54 -129 267 -163 321 -52 83 -50
107 8 113 6 0 16 -5 22 -11z m905 -40 c9 -13 -1 -35 -45 -105 -131 -208 -187
-351 -216 -548 -6 -45 -6 -293 0 -354 3 -21 -1 -25 -24 -24 -59 2 -60 2 -53
21 10 21 13 71 14 232 2 144 11 211 48 330 36 118 167 384 226 458 13 16 37
12 50 -10z"/>
<path d="M1888 3883 c18 -2 45 -2 60 0 15 2 0 4 -33 4 -33 0 -45 -2 -27 -4z"/>
<path d="M1446 3400 c-90 -28 -132 -139 -86 -229 64 -127 270 -59 270 89 0 91
-98 166 -184 140z m77 -44 c47 -20 68 -48 69 -93 0 -48 -16 -77 -58 -99 -66
-36 -164 7 -164 72 0 39 30 94 63 114 38 24 48 24 90 6z"/>
<path d="M935 2113 c-49 -7 -75 -39 -75 -91 0 -35 6 -49 29 -73 36 -36 49 -36
57 -4 4 16 13 25 25 25 21 0 60 -30 54 -41 -3 -3 203 -7 458 -8 259 0 456 3
448 8 -11 7 -9 13 8 30 11 11 28 21 36 21 8 0 15 5 15 10 0 10 -17 8 -77 -7
-16 -4 -32 -8 -38 -8 -5 -1 -18 -5 -28 -10 -10 -4 -23 -3 -29 3 -7 7 -18 6
-35 -3 -14 -7 -38 -10 -56 -7 -18 3 -114 6 -215 6 -100 1 -182 5 -182 10 0 4
-8 5 -17 1 -20 -8 -185 -8 -223 1 -14 3 -57 7 -95 8 -84 3 -95 8 -95 47 0 29
10 35 50 31 17 -2 808 -14 963 -14 54 0 103 4 109 10 15 15 45 3 52 -21 7 -29
-11 -47 -48 -48 -17 0 -26 -3 -20 -5 6 -2 9 -18 6 -34 -4 -29 -4 -30 27 -19
40 14 81 63 81 98 0 62 -77 107 -140 81 -24 -10 -28 -15 -18 -22 9 -6 4 -8
-15 -3 -16 3 -26 2 -23 -3 3 -5 -5 -7 -17 -6 -33 4 -34 5 -12 15 16 7 14 9
-12 6 -18 -2 -33 0 -33 5 0 5 -188 9 -417 8 -230 0 -429 2 -443 4 -14 2 -38 2
-55 -1z"/>
<path d="M2006 1823 c-4 -4 -45 -6 -90 -5 -84 2 -84 2 -82 -23 0 -14 6 -25 13
-25 7 0 10 9 8 23 -4 20 -3 20 9 5 7 -10 16 -15 19 -11 4 3 7 -1 7 -10 0 -14
11 -15 85 -11 77 4 85 2 95 -16 6 -12 8 -30 5 -41 -7 -22 -49 -43 -77 -40 -10
1 -18 -4 -18 -11 0 -10 -2 -10 -9 1 -6 9 -19 12 -42 7 -63 -12 -109 -13 -115
-4 -3 5 -12 4 -20 -3 -21 -17 -154 -16 -164 2 -8 11 -10 11 -15 -1 -7 -19 -80
-19 -114 -1 -14 8 -21 9 -17 2 9 -15 -17 -14 -32 1 -9 9 -13 7 -18 -6 -6 -15
-9 -15 -29 -2 -12 8 -27 11 -34 7 -7 -5 -37 -7 -67 -5 -30 2 -54 -1 -54 -6 0
-10 -41 0 -56 14 -6 6 -36 10 -67 10 -31 -1 -57 3 -57 8 0 5 -4 7 -9 4 -5 -4
-29 -7 -52 -8 -24 -1 -38 -3 -32 -5 7 -3 10 -10 7 -17 -3 -9 13 -12 60 -11 35
0 62 3 59 8 -2 4 1 7 6 7 6 0 11 -7 11 -16 0 -9 5 -12 12 -8 7 5 9 2 5 -8 -5
-14 40 -16 431 -20 397 -4 441 -3 479 13 43 18 73 59 73 99 0 37 -30 81 -65
96 -40 16 -39 16 -49 7z"/>
<path d="M894 1797 c-23 -20 -28 -34 -32 -84 -4 -56 -2 -61 23 -81 15 -12 38
-22 51 -22 19 0 23 5 22 31 -1 16 -4 25 -8 20 -4 -7 -14 -5 -28 5 -24 17 -30
65 -9 81 6 6 68 11 137 11 69 1 134 3 145 5 11 2 31 1 45 -3 16 -4 34 -1 48 8
20 13 22 13 22 -2 0 -19 16 -21 26 -4 4 6 3 8 -4 5 -6 -5 -8 1 -4 15 3 12 7
17 10 10 5 -17 22 -15 22 3 0 13 -25 15 -169 15 -103 0 -172 -4 -176 -10 -10
-15 -52 -12 -59 5 -8 22 -31 18 -62 -8z"/>
<path d="M1628 1778 c-18 -5 -15 -6 15 -7 21 -1 36 -5 32 -10 -3 -5 -1 -13 5
-16 6 -4 9 -1 8 7 -2 7 4 13 12 13 8 0 16 5 17 10 3 11 -54 13 -89 3z"/>
<path d="M1749 1772 c-15 -13 -19 -21 -10 -26 7 -5 10 -2 9 6 -2 8 8 14 27 14
48 3 51 4 35 14 -22 14 -35 12 -61 -8z"/>
<path d="M1099 1493 c-24 -4 -27 -9 -32 -66 -8 -81 -34 -207 -58 -279 -28 -85
-26 -104 19 -132 58 -36 144 -135 184 -212 41 -79 121 -302 148 -414 10 -41
22 -110 25 -153 8 -94 25 -117 85 -117 73 0 110 36 110 106 0 26 -11 30 -39
15 -11 -7 -27 -4 -49 6 -25 12 -36 13 -45 4 -27 -27 -58 8 -39 46 23 44 31 72
36 130 3 36 2 65 -4 68 -13 8 -13 45 0 45 5 0 10 86 12 215 2 170 0 215 -10
215 -7 0 -23 6 -35 14 -19 13 -24 13 -35 0 -11 -12 -10 -14 3 -14 9 0 14 -4
11 -9 -4 -5 -1 -11 5 -13 17 -6 22 -46 22 -198 1 -143 -3 -200 -15 -200 -5 0
-8 -11 -8 -25 0 -42 -17 -28 -39 30 -12 31 -21 59 -21 64 0 14 -77 196 -97
228 -32 52 -115 148 -155 178 -21 16 -40 36 -43 45 -3 8 4 47 16 85 11 39 26
107 34 153 18 106 32 135 70 143 17 4 167 7 335 8 l305 1 38 -25 c20 -14 37
-27 37 -30 0 -49 30 -199 59 -295 6 -19 11 -36 11 -36 0 -1 -32 -33 -71 -70
-112 -108 -201 -248 -254 -399 -9 -27 -22 -63 -28 -79 l-10 -28 -18 43 c-15
37 -18 73 -18 215 1 157 2 174 20 193 11 12 27 21 37 21 15 0 15 2 2 11 -11 8
-12 12 -2 16 23 9 41 34 36 48 -9 22 -23 18 -36 -10 -13 -28 -66 -65 -93 -65
-12 0 -15 -5 -10 -17 3 -10 6 -105 6 -212 -1 -195 4 -246 20 -235 9 5 11 -11
14 -116 3 -90 4 -98 22 -104 22 -9 31 8 39 74 19 165 106 383 204 514 27 35
79 90 115 123 36 32 65 64 65 72 0 8 -12 48 -26 89 -14 41 -29 111 -34 156 -5
44 -14 105 -20 134 l-12 52 -381 -1 c-210 -1 -394 -4 -408 -6z m421 -1313 c0
-5 -11 -12 -25 -16 -49 -12 -77 18 -32 35 23 9 57 -2 57 -19z"/>
<path d="M1457 1253 c-3 -2 -11 -5 -19 -7 -8 -1 -25 -12 -38 -24 -13 -12 -28
-22 -33 -22 -14 0 -47 -41 -48 -59 0 -9 -2 -26 -5 -38 -2 -13 1 -23 6 -23 6 0
9 -3 9 -7 -4 -22 2 -40 14 -40 8 0 11 12 9 37 -5 51 20 96 68 120 67 34 122
21 175 -41 21 -26 28 -30 36 -18 5 8 9 19 9 25 0 13 -74 83 -90 85 -13 2 -29
6 -32 8 -7 6 -57 9 -61 4z"/>
</g>
</svg>
